<svg id="Layer_1" data-name="Layer 1" xmlns="http://www.w3.org/2000/svg" viewBox="0 0 365.23 83.2"><defs><style>.cls-1{fill:#fff;}</style></defs><path class="cls-1" d="M111.52,105.46q17.19-.76,21.49,14.85a49.22,49.22,0,0,1,.78,17.58,37.2,37.2,0,0,1-5.47,15.62,23.68,23.68,0,0,1-12.89,9.77,32.29,32.29,0,0,1-12.89,1.17q-9.76-1.17-14.45-7.81-5.09-7-3.91-21.49,1.17-13.28,9-21.87Q99.8,105.85,111.52,105.46Zm-5.46,48.44q5.46,1.57,9-5.08,2-3.51,2.73-13.28a88.05,88.05,0,0,0,0-11.72q-.39-5.07-3.51-6.64-5.87-2.73-9.77,2.74-5.85,8.2-4.68,21.87Q100.57,152.33,106.06,153.9Z" transform="translate(-64.98 -81.64)"/><path class="cls-1" d="M158,163.67l-18.75-.39,5.08-81.64L161.13,84,158,120.7l27.34-28.13,9.38,12.5-20.31,21.49,18.75,29.29-13.29,9q-4.68-8.59-10.15-17.19-6.25-9-11.72-17.58Z" transform="translate(-64.98 -81.64)"/><path class="cls-1" d="M215,163.28H199l5.86-57.82,14.85,1.18-.39,6.25q9-7,16.79-7,8.2,0,11.72,3.52a15.71,15.71,0,0,1,4.69,8.2,66,66,0,0,1,.78,11.33l-.78,34.38h-18l1.56-19.93q.78-9.75.79-16.4c0-4.69-.92-7.29-2.74-7.81a7.15,7.15,0,0,0-5.86,1.17c-2.34,1.56-4,2.73-5.08,3.51a26,26,0,0,0-5.86,6.25,105.63,105.63,0,0,0-1.56,14.07Z" transform="translate(-64.98 -81.64)"/><path class="cls-1" d="M286.13,105.46q17.19-.76,21.49,14.85a49.22,49.22,0,0,1,.78,17.58,37.2,37.2,0,0,1-5.47,15.62A23.68,23.68,0,0,1,290,163.28a32.29,32.29,0,0,1-12.89,1.17q-9.76-1.17-14.45-7.81-5.08-7-3.91-21.49,1.17-13.28,9-21.87Q274.41,105.85,286.13,105.46Zm-5.46,48.44q5.46,1.57,9-5.08,2-3.51,2.73-13.28a88.05,88.05,0,0,0,0-11.72q-.39-5.07-3.51-6.64-5.87-2.73-9.77,2.74-5.85,8.2-4.68,21.87Q275.19,152.33,280.67,153.9Z" transform="translate(-64.98 -81.64)"/><path class="cls-1" d="M326.76,115.62l4.69-33.2,15.23,1.17-3.9,31.64h13.28v11.33l-14.07.78-1.56,35.55H323.24l2-33.6-11.72,2,.78-15.24Z" transform="translate(-64.98 -81.64)"/><path class="cls-1" d="M388.48,105.46q17.17-.76,21.48,14.85a49,49,0,0,1,.78,17.58,37.2,37.2,0,0,1-5.46,15.62,23.71,23.71,0,0,1-12.9,9.77,32.27,32.27,0,0,1-12.89,1.17q-9.76-1.17-14.45-7.81-5.09-7-3.91-21.49,1.19-13.28,9-21.87Q376.75,105.85,388.48,105.46ZM383,153.9q5.46,1.57,9-5.08,2-3.51,2.74-13.28a91.57,91.57,0,0,0,0-11.72c-.26-3.38-1.44-5.59-3.52-6.64q-5.85-2.73-9.76,2.74-5.86,8.2-4.69,21.87Q377.54,152.33,383,153.9Z" transform="translate(-64.98 -81.64)"/><path class="cls-1" d="M371,130.29c10.24,1,22.69.74,33.41-4.34,12.82-6.08,15.8-15.59,20.3-15.06,5.11.59,8.93,13.77.55,22.29-10.73,10.92-39.23,11.89-50,3.18A13.4,13.4,0,0,1,371,130.29Z" transform="translate(-64.98 -81.64)"/><path class="cls-1" d="M125,131.13c-10.7,1.3-23.53,1.3-33.92-3.88-12.44-6.2-14.26-16.27-19-15.61-5.36.75-11,14.9-3.51,23.8,9.65,11.41,38.94,11.81,51.16,2.27A17.59,17.59,0,0,0,125,131.13Z" transform="translate(-64.98 -81.64)"/></svg>